<svg width="24" height="14" viewBox="0 0 24 14" fill="none" xmlns="http://www.w3.org/2000/svg">
<path fill-rule="evenodd" clip-rule="evenodd" d="M19.8641 7.86404L1.125 7.86404C0.50368 7.86404 5.35063e-07 7.36104 5.89307e-07 6.74056C6.43551e-07 6.12007 0.50368 5.61708 1.125 5.61708L19.8641 5.61708L16.0312 1.77942C15.6246 1.37228 15.6246 0.712169 16.0312 0.305026C16.4379 -0.102116 17.0972 -0.102116 17.5038 0.305026L23.195 6.00336C23.6017 6.4105 23.6017 7.07061 23.195 7.47776L17.5038 13.1761C17.0971 13.5832 16.4379 13.5832 16.0312 13.1761C15.6246 12.7689 15.6246 12.1088 16.0312 11.7017L19.8641 7.86404Z" fill="black"/>
</svg>
