<svg width="20" height="20" viewBox="0 0 20 20" fill="none" xmlns="http://www.w3.org/2000/svg">
<path fill-rule="evenodd" clip-rule="evenodd" d="M9.86355 0C4.41342 0 0 4.48 0 10C0 15.52 4.41342 20 9.86355 20C15.3235 20 19.7468 15.52 19.7468 10C19.7468 4.48 15.3235 0 9.86355 0ZM9.87342 18C5.50937 18 1.97469 14.42 1.97469 10C1.97469 5.58 5.50937 2 9.87342 2C14.2375 2 17.7722 5.58 17.7722 10C17.7722 14.42 14.2375 18 9.87342 18ZM8.88574 5H10.3668V10.25L14.8098 12.92L14.0693 14.15L8.88574 11V5Z" fill="black"/>
</svg>
